<svg version="1.1" xmlns="http://www.w3.org/2000/svg" width="304pt" height="304pt" viewBox="0 0 304 304" preserveAspectRatio="xMidYMid meet"><g transform="translate(0,304) scale(0.1,-0.1)" fill="#00a6ed" stroke="none"><path d="M1347 2583 c-2 -2 -26 -5 -53 -8 -120 -12 -163 -19 -249 -41 -33 -9 -67 -17 -75 -19 -8 -2 -35 -9 -60 -16 -25 -7 -47 -13 -50 -14 -25 -5 -88 -30 -97 -38 -7 -5 -13 -6 -13 -2 0 4 -11 0 -25 -9 -14 -9 -25 -14 -25 -11 0 4 -12 -1 -27 -9 -16 -8 -55 -27 -88 -42 -107 -49 -275 -154 -395 -248 -76 -59 -180 -156 -180 -167 0 -5 87 -97 194 -206 l194 -197 33 26 c19 15 48 39 64 55 17 15 42 36 55 45 144 100 199 135 280 174 116 58 280 111 395 130 17 3 37 7 45 10 47 17 303 23 425 11 182 -18 359 -69 525 -150 141 -69 283 -164 380 -254 25 -24 49 -43 54 -43 5 0 94 84 198 188 126 125 188 194 188 208 0 40 -241 236 -408 332 -83 47 -279 142 -295 142 -7 0 -17 4 -22 8 -10 8 -169 63 -178 61 -1 0 -15 5 -32 11 -16 7 -39 14 -50 16 -11 2 -42 8 -70 14 -27 6 -61 13 -75 15 -14 3 -43 8 -65 10 -22 3 -56 8 -75 11 -39 6 -418 13 -423 7z"/><path d="M1418 1785 c-2 -2 -28 -5 -58 -9 -30 -3 -64 -7 -75 -10 -11 -2 -42 -9 -70 -15 -27 -7 -72 -19 -100 -28 -27 -10 -52 -18 -55 -18 -18 -5 -58 -23 -155 -71 -103 -51 -212 -124 -300 -202 l-37 -33 193 -194 c106 -107 196 -195 200 -195 3 0 17 10 31 23 28 26 152 113 155 110 2 -2 27 8 55 21 61 28 148 54 204 62 51 7 222 7 254 -1 14 -3 36 -8 50 -11 89 -17 230 -85 320 -153 l65 -50 186 182 c102 100 189 189 193 197 8 17 -55 77 -159 149 -100 69 -275 159 -329 168 -11 2 -25 8 -33 14 -7 6 -13 9 -13 5 0 -3 -12 -1 -27 5 -16 6 -39 13 -53 15 -14 3 -33 7 -42 10 -21 6 -53 13 -98 20 -36 6 -297 13 -302 9z"/><path d="M1376 965 c-127 -37 -236 -102 -236 -142 0 -24 361 -383 385 -383 13 0 89 70 209 190 l188 190 -16 25 c-9 14 -21 25 -26 25 -4 0 -15 6 -22 13 -12 13 -121 69 -143 74 -133 33 -243 36 -339 8z"/></g></svg>